<svg width="500" height="500" viewBox="0 0 500 500" fill="none" xmlns="http://www.w3.org/2000/svg">
<g clip-path="url(#clip0_192_5)">
<path d="M199.64 94.9864C221.059 54.5862 278.94 54.5861 300.36 94.9864L328.423 147.917C333.765 157.993 342.007 166.235 352.083 171.577L405.014 199.64C445.414 221.059 445.414 278.94 405.014 300.36L352.083 328.423C342.007 333.765 333.765 342.007 328.423 352.083L300.36 405.014C278.941 445.414 221.059 445.414 199.64 405.014L171.577 352.083C166.235 342.007 157.993 333.765 147.917 328.423L94.9864 300.36C54.5862 278.941 54.5861 221.059 94.9864 199.64L147.917 171.577C157.993 166.235 166.235 157.993 171.577 147.917L199.64 94.9864Z" fill="#BCBCBC"/>
<path d="M104.332 175.552C90.9109 131.839 131.839 90.9107 175.552 104.332L232.823 121.916C243.725 125.264 255.381 125.264 266.284 121.916L323.555 104.332C367.268 90.9107 408.196 131.839 394.774 175.552L377.19 232.823C373.843 243.725 373.843 255.381 377.19 266.283L394.774 323.555C408.196 367.268 367.268 408.196 323.555 394.774L266.284 377.19C255.381 373.843 243.726 373.843 232.823 377.19L175.552 394.774C131.839 408.196 90.9109 367.268 104.332 323.555L121.917 266.283C125.264 255.381 125.264 243.725 121.917 232.823L104.332 175.552Z" fill="white"/>
</g>
<defs>
<clipPath id="clip0_192_5">
<rect width="500" height="500" fill="white"/>
</clipPath>
</defs>
</svg>
